<?xml version="1.0" standalone="no"?>
<!DOCTYPE svg PUBLIC "-//W3C//DTD SVG 20010904//EN"
 "http://www.w3.org/TR/2001/REC-SVG-20010904/DTD/svg10.dtd">
<svg version="1.0" xmlns="http://www.w3.org/2000/svg"
 width="70.000000pt" height="70.000000pt" viewBox="0 0 70.000000 70.000000"
 preserveAspectRatio="xMidYMid meet">
<metadata>
Created by potrace 1.14, written by Peter Selinger 2001-2017
</metadata>
<g transform="translate(0.000000,70.000000) scale(0.100000,-0.100000)"
fill="#000000" stroke="none">
<path d="M180 585 c0 -33 -2 -35 -35 -35 -33 0 -35 -2 -35 -35 0 -33 -2 -35
-35 -35 l-35 0 0 -70 0 -70 35 0 c33 0 35 -2 35 -35 0 -33 2 -35 35 -35 33 0
35 -2 35 -35 0 -33 2 -35 35 -35 33 0 35 -2 35 -35 0 -33 2 -35 35 -35 33 0
35 -2 35 -35 0 -33 2 -35 35 -35 33 0 35 2 35 35 0 33 2 35 35 35 33 0 35 2
35 35 0 33 2 35 35 35 33 0 35 2 35 35 0 33 2 35 35 35 33 0 35 2 35 35 0 33
2 35 35 35 l35 0 0 70 0 70 -35 0 c-33 0 -35 2 -35 35 0 33 -2 35 -35 35 -33
0 -35 2 -35 35 l0 35 -175 0 -175 0 0 -35z"/>
</g>
</svg>
